<?xml version="1.0" encoding="UTF-8"?>
<svg id="Capa_2" data-name="Capa 2" xmlns="http://www.w3.org/2000/svg" viewBox="0 0 320.85 114.96">
    <defs>
        <style>
            .cls-1 {
            fill: currentColor;
            }
        </style>
    </defs>
    <g id="Capa_1-2">
        <path class="cls-1" d="M30.88,92.99h9.29v16.49c-2.3,1.61-5.07,2.93-8.32,3.95-3.23,1.02-6.31,1.53-9.26,1.53-6.45,0-11.83-2.05-16.13-6.16-4.31-4.13-6.46-9.28-6.46-15.45s2.21-11.22,6.64-15.34c4.44-4.11,10.01-6.16,16.69-6.16,3.13,0,6.24,.58,9.35,1.71,3.1,1.12,5.74,2.65,7.9,4.57l-6.02,7.31c-1.53-1.42-3.32-2.54-5.34-3.36-2.01-.83-4-1.24-5.96-1.24-3.47,0-6.37,1.2-8.73,3.6-2.36,2.4-3.54,5.37-3.54,8.91s1.19,6.58,3.57,9c2.37,2.42,5.32,3.63,8.82,3.63,2.24,0,4.73-.68,7.49-2.04v-10.94Z"/>
        <path class="cls-1" d="M94.96,72.2v24.54c0,5.6-1.74,10.05-5.22,13.33-3.47,3.27-8.15,4.9-14.07,4.9s-10.7-1.63-14.22-4.9c-3.52-3.28-5.28-7.73-5.28-13.33v-24.54h10.74v24.54c0,2.82,.81,5.06,2.45,6.72,1.63,1.67,3.75,2.51,6.37,2.51s4.64-.83,6.19-2.48c1.55-1.65,2.33-3.9,2.33-6.75v-24.54h10.71Z"/>
        <path class="cls-1" d="M146.34,79.1l-22.59,26.87h22.95v8.52h-37.34v-6.87l22.65-26.9h-21.85v-8.52h36.19v6.9Z"/>
        <path class="cls-1" d="M208.35,114.49h-9.47l-.06-27.49-10.15,23.27h-7.02l-10.15-23.27v27.49h-9.61v-42.35h11.8l11.47,25.19,11.47-25.19h11.71v42.35Z"/>
        <path class="cls-1" d="M254.2,106.71h-18.49l-3.07,7.79h-11.06l18.23-42.29h11.06l17.81,42.29h-11.47l-3.01-7.79Zm-3.16-8.17l-6.05-15.63-6.16,15.63h12.21Z"/>
        <path class="cls-1" d="M320.85,114.49h-9.47l-19.47-26.04v26.04h-10.09v-42.29h9.5l19.49,26.1v-26.1h10.03v42.29Z"/>
        <path class="cls-1" d="M96.53,.41V29.05c0,4.47-1.3,7.95-3.89,10.44-2.6,2.5-6.18,3.75-10.74,3.75-5.77,0-10.61-2.25-14.54-6.75l4.95-7.2c3.01,3.15,5.96,4.72,8.88,4.72s4.51-1.73,4.51-5.19V9.11h-14.48V.41h25.3Z"/>
        <path class="cls-1" d="M133.54,.12c6.56,0,12.02,2.05,16.37,6.13,4.34,4.09,6.52,9.19,6.52,15.31s-2.18,11.31-6.55,15.45c-4.36,4.15-9.81,6.22-16.34,6.22s-11.94-2.05-16.31-6.16c-4.35-4.13-6.52-9.3-6.52-15.51s2.17-11.27,6.52-15.34C121.59,2.15,127.03,.12,133.54,.12Zm.12,9c-3.3,0-6.13,1.2-8.46,3.6-2.32,2.4-3.48,5.37-3.48,8.91s1.18,6.53,3.54,8.97c2.36,2.44,5.16,3.66,8.41,3.66s6.03-1.22,8.32-3.66c2.28-2.43,3.42-5.43,3.42-8.97s-1.14-6.5-3.42-8.91c-2.29-2.4-5.06-3.6-8.32-3.6Z"/>
        <path class="cls-1" d="M187.59,0c6.33,0,11.89,1.58,16.69,4.72l-4.07,8.38c-2.2-1.28-4.57-2.33-7.11-3.16s-4.67-1.24-6.4-1.24c-3.11,0-4.66,1.02-4.66,3.07,0,1.34,.77,2.41,2.3,3.21,1.53,.81,3.39,1.5,5.57,2.09,2.2,.58,4.39,1.27,6.58,2.09,2.2,.83,4.07,2.18,5.6,4.04,1.53,1.85,2.3,4.18,2.3,6.99,0,4.07-1.59,7.25-4.78,9.53-3.19,2.26-7.24,3.39-12.15,3.39-3.5,0-6.96-.6-10.38-1.8-3.42-1.22-6.4-2.87-8.94-4.95l4.16-8.29c2.14,1.87,4.66,3.39,7.55,4.57,2.91,1.18,5.49,1.77,7.73,1.77,1.73,0,3.07-.3,4.04-.91,.98-.63,1.47-1.55,1.47-2.77,0-1.16-.56-2.13-1.68-2.92-1.11-.78-2.48-1.36-4.13-1.74-1.65-.39-3.45-.9-5.4-1.53-1.93-.65-3.72-1.36-5.37-2.12-1.64-.77-3.01-1.98-4.13-3.66-1.11-1.67-1.65-3.67-1.65-6.02,0-3.85,1.53-6.94,4.6-9.26,3.08-2.32,7.17-3.48,12.24-3.48Z"/>
        <path class="cls-1" d="M252.59,8.94h-22.36v8.41h20.17v8.46h-20.17v8.49h23v8.46h-33.77V.47h33.12V8.94Z"/>
    </g>
</svg>