<svg xmlns="http://www.w3.org/2000/svg" xmlns:xlink="http://www.w3.org/1999/xlink" width="465" zoomAndPan="magnify"
     viewBox="0 0 348.75 104.249996" height="139" preserveAspectRatio="xMidYMid meet" version="1.0">
    <g clip-path="url(#2acd04fe25)">
        <path fill="#f4f6fc"
              d="M 91.375 45.808594 L 52.507812 68.445312 L 73.734375 63.882812 L 73.734375 72.585938 L 91.375 103.140625 L 91.375 45.808594 "
              fill-opacity="1" fill-rule="nonzero"/>
    </g>
    <g clip-path="url(#d70fc9e090)">
        <path fill="#f4f6fc"
              d="M 91.375 0.00390625 L 30.113281 0.00390625 L 40.289062 17.644531 L 73.296875 17.644531 L 68.738281 38.871094 L 91.375 0.00390625 "
              fill-opacity="1" fill-rule="nonzero"/>
    </g>
    <g clip-path="url(#a5a5d2df0a)">
        <path fill="#f4f6fc"
              d="M 37.203125 19.4375 L 27.023438 1.789062 L 1.121094 46.648438 L 21.492188 46.648438 L 37.203125 19.4375 "
              fill-opacity="1" fill-rule="nonzero"/>
    </g>
    <path fill="#f4f6fc"
          d="M 73.734375 79.125 L 40.007812 79.125 L 30.136719 96.765625 L 83.917969 96.765625 L 73.734375 79.125 "
          fill-opacity="1" fill-rule="nonzero"/>
    <g clip-path="url(#92890db0f5)">
        <path fill="#f4f6fc"
              d="M 21.492188 50.117188 L 1.121094 50.117188 L 27.09375 95.101562 L 37.117188 77.183594 L 21.492188 50.117188 "
              fill-opacity="1" fill-rule="nonzero"/>
    </g>
    <g fill="#f4f6fc" fill-opacity="1">
        <g transform="translate(104.614262, 77.368504)">
            <g>
                <path d="M 17 -11.3125 L 21.890625 -11.3125 L 21.890625 -2.640625 C 20.679688 -1.785156 19.222656 -1.085938 17.515625 -0.546875 C 15.816406 -0.015625 14.191406 0.25 12.640625 0.25 C 9.253906 0.25 6.425781 -0.832031 4.15625 -3 C 1.894531 -5.175781 0.765625 -7.882812 0.765625 -11.125 C 0.765625 -14.34375 1.925781 -17.03125 4.25 -19.1875 C 6.582031 -21.34375 9.507812 -22.421875 13.03125 -22.421875 C 14.675781 -22.421875 16.3125 -22.125 17.9375 -21.53125 C 19.570312 -20.9375 20.960938 -20.132812 22.109375 -19.125 L 18.9375 -15.28125 C 18.125 -16.019531 17.1875 -16.601562 16.125 -17.03125 C 15.070312 -17.46875 14.023438 -17.6875 12.984375 -17.6875 C 11.171875 -17.6875 9.644531 -17.054688 8.40625 -15.796875 C 7.164062 -14.535156 6.546875 -12.976562 6.546875 -11.125 C 6.546875 -9.238281 7.171875 -7.660156 8.421875 -6.390625 C 9.671875 -5.117188 11.21875 -4.484375 13.0625 -4.484375 C 14.238281 -4.484375 15.550781 -4.84375 17 -5.5625 Z M 17 -11.3125 "/>
            </g>
        </g>
    </g>
    <g fill="#f4f6fc" fill-opacity="1">
        <g transform="translate(133.075658, 77.368504)">
            <g>
                <path d="M 22.234375 -22.234375 L 22.234375 -9.34375 C 22.234375 -6.394531 21.320312 -4.054688 19.5 -2.328125 C 17.675781 -0.609375 15.210938 0.25 12.109375 0.25 C 8.972656 0.25 6.476562 -0.609375 4.625 -2.328125 C 2.769531 -4.054688 1.84375 -6.394531 1.84375 -9.34375 L 1.84375 -22.234375 L 7.5 -22.234375 L 7.5 -9.34375 C 7.5 -7.851562 7.925781 -6.671875 8.78125 -5.796875 C 9.632812 -4.921875 10.753906 -4.484375 12.140625 -4.484375 C 13.492188 -4.484375 14.578125 -4.914062 15.390625 -5.78125 C 16.203125 -6.644531 16.609375 -7.832031 16.609375 -9.34375 L 16.609375 -22.234375 Z M 22.234375 -22.234375 "/>
            </g>
        </g>
    </g>
    <g fill="#f4f6fc" fill-opacity="1">
        <g transform="translate(162.013512, 77.368504)">
            <g>
                <path d="M 20.328125 -18.609375 L 8.453125 -4.484375 L 20.515625 -4.484375 L 20.515625 0 L 0.890625 0 L 0.890625 -3.625 L 12.796875 -17.75 L 1.296875 -17.75 L 1.296875 -22.234375 L 20.328125 -22.234375 Z M 20.328125 -18.609375 "/>
            </g>
        </g>
    </g>
    <g fill="#f4f6fc" fill-opacity="1">
        <g transform="translate(188.314983, 77.368504)">
            <g>
                <path d="M 26.65625 0 L 21.671875 0 L 21.625 -14.453125 L 16.296875 -2.21875 L 12.609375 -2.21875 L 7.28125 -14.453125 L 7.28125 0 L 2.21875 0 L 2.21875 -22.265625 L 8.421875 -22.265625 L 14.453125 -9.015625 L 20.484375 -22.265625 L 26.65625 -22.265625 Z M 26.65625 0 "/>
            </g>
        </g>
    </g>
    <g fill="#f4f6fc" fill-opacity="1">
        <g transform="translate(222.080902, 77.368504)">
            <g>
                <path d="M 17 -4.09375 L 7.28125 -4.09375 L 5.65625 0 L -0.15625 0 L 9.4375 -22.234375 L 15.25 -22.234375 L 24.625 0 L 18.578125 0 Z M 15.34375 -8.390625 L 12.171875 -16.609375 L 8.921875 -8.390625 Z M 15.34375 -8.390625 "/>
            </g>
        </g>
    </g>
    <g fill="#f4f6fc" fill-opacity="1">
        <g transform="translate(251.399917, 77.368504)">
            <g>
                <path d="M 22.75 0 L 17.75 0 L 7.53125 -13.6875 L 7.53125 0 L 2.21875 0 L 2.21875 -22.234375 L 7.203125 -22.234375 L 17.46875 -8.515625 L 17.46875 -22.234375 L 22.75 -22.234375 Z M 22.75 0 "/>
            </g>
        </g>
    </g>
    <g fill="#f4f6fc" fill-opacity="1">
        <g transform="translate(152.057803, 44.475668)">
            <g>
                <path d="M 5.78125 0.328125 C 9.4375 0.328125 11.359375 -1.75 11.359375 -5.109375 L 11.359375 -14.78125 C 11.359375 -15.3125 11.1875 -15.515625 10.640625 -15.515625 L 9.34375 -15.515625 C 8.78125 -15.515625 8.625 -15.3125 8.625 -14.78125 L 8.625 -5.09375 C 8.625 -3.21875 7.671875 -2.234375 5.78125 -2.234375 C 4.296875 -2.234375 3.53125 -2.921875 3.109375 -4.234375 C 2.890625 -4.78125 2.6875 -4.890625 2.15625 -4.703125 L 0.96875 -4.28125 C 0.4375 -4.078125 0.328125 -3.84375 0.5 -3.3125 C 1.25 -1 2.921875 0.328125 5.78125 0.328125 Z M 5.78125 0.328125 "/>
            </g>
        </g>
    </g>
    <g fill="#f4f6fc" fill-opacity="1">
        <g transform="translate(167.607586, 44.475668)">
            <g>
                <path d="M 7.46875 0.328125 C 11.484375 0.328125 13.71875 -1.859375 13.71875 -5.375 L 13.71875 -10.140625 C 13.71875 -13.65625 11.484375 -15.84375 7.46875 -15.84375 C 3.453125 -15.84375 1.21875 -13.65625 1.21875 -10.140625 L 1.21875 -5.375 C 1.21875 -1.859375 3.453125 0.328125 7.46875 0.328125 Z M 7.46875 -2.234375 C 5.21875 -2.234375 3.96875 -3.3125 3.96875 -5.359375 L 3.96875 -10.15625 C 3.96875 -12.1875 5.21875 -13.28125 7.46875 -13.28125 C 9.71875 -13.28125 10.96875 -12.1875 10.96875 -10.15625 L 10.96875 -5.359375 C 10.96875 -3.3125 9.71875 -2.234375 7.46875 -2.234375 Z M 7.46875 -2.234375 "/>
            </g>
        </g>
    </g>
    <g fill="#f4f6fc" fill-opacity="1">
        <g transform="translate(185.16655, 44.475668)">
            <g>
                <path d="M 7.015625 0.328125 C 11.03125 0.328125 13.234375 -1.65625 13.234375 -4.5625 C 13.234375 -8.21875 10.265625 -8.84375 7.6875 -9.125 C 5.703125 -9.34375 3.90625 -9.640625 3.90625 -11.203125 C 3.90625 -12.5625 4.953125 -13.21875 7.09375 -13.21875 C 8.828125 -13.21875 9.671875 -12.53125 10.265625 -11.375 C 10.53125 -10.875 10.71875 -10.796875 11.203125 -11.015625 L 12.421875 -11.53125 C 12.953125 -11.78125 13.078125 -12.03125 12.828125 -12.53125 C 11.796875 -14.703125 10.203125 -15.84375 7.09375 -15.84375 C 3.140625 -15.84375 1.109375 -13.828125 1.109375 -11.046875 C 1.109375 -7.234375 4.375 -6.8125 7.03125 -6.53125 C 8.890625 -6.328125 10.484375 -6 10.484375 -4.5 C 10.484375 -2.921875 9.265625 -2.234375 7.015625 -2.234375 C 5.3125 -2.234375 4.171875 -2.96875 3.609375 -4.265625 C 3.390625 -4.78125 3.1875 -4.890625 2.671875 -4.71875 L 1.484375 -4.28125 C 0.9375 -4.109375 0.828125 -3.859375 1 -3.3125 C 1.90625 -0.96875 3.625 0.328125 7.015625 0.328125 Z M 7.015625 0.328125 "/>
            </g>
        </g>
    </g>
    <g fill="#f4f6fc" fill-opacity="1">
        <g transform="translate(201.939309, 44.475668)">
            <g>
                <path d="M 5.421875 -16.671875 L 9.21875 -18.265625 C 9.65625 -18.4375 9.640625 -18.609375 9.3125 -19 L 8.765625 -19.703125 C 8.390625 -20.125 7.953125 -19.984375 7.515625 -19.75 L 4.296875 -17.796875 C 3.96875 -17.625 3.96875 -17.453125 4.265625 -17.109375 L 4.5625 -16.6875 C 4.765625 -16.453125 5 -16.515625 5.421875 -16.671875 Z M 2.421875 0 L 11.359375 0 C 11.90625 0 12.09375 -0.203125 12.09375 -0.75 L 12.09375 -1.8125 C 12.09375 -2.359375 11.90625 -2.5625 11.359375 -2.5625 L 4.40625 -2.5625 L 4.40625 -6.578125 L 10.0625 -6.578125 C 10.640625 -6.578125 10.8125 -6.765625 10.8125 -7.3125 L 10.8125 -8.390625 C 10.8125 -8.9375 10.640625 -9.125 10.0625 -9.125 L 4.40625 -9.125 L 4.40625 -12.953125 L 11.125 -12.953125 C 11.671875 -12.953125 11.859375 -13.15625 11.859375 -13.703125 L 11.859375 -14.765625 C 11.859375 -15.3125 11.671875 -15.515625 11.125 -15.515625 L 2.421875 -15.515625 C 1.859375 -15.515625 1.6875 -15.3125 1.6875 -14.765625 L 1.6875 -0.75 C 1.6875 -0.203125 1.859375 0 2.421875 0 Z M 2.421875 0 "/>
            </g>
        </g>
    </g>
</svg>